<?xml version="1.0" encoding="UTF-8" standalone="no"?>
<!-- Created with Inkscape (http://www.inkscape.org/) -->

<svg
   xmlns:dc="http://purl.org/dc/elements/1.1/"
   xmlns:cc="http://creativecommons.org/ns#"
   xmlns:rdf="http://www.w3.org/1999/02/22-rdf-syntax-ns#"
   xmlns:svg="http://www.w3.org/2000/svg"
   xmlns="http://www.w3.org/2000/svg"
   xmlns:sodipodi="http://sodipodi.sourceforge.net/DTD/sodipodi-0.dtd"
   xmlns:inkscape="http://www.inkscape.org/namespaces/inkscape"
   width="210mm"
   height="297mm"
   id="svg4291"
   version="1.1"
   inkscape:version="0.47 r22583"
   sodipodi:docname="emblems_factions.svg">
  <defs
     id="defs4293">
    <inkscape:perspective
       sodipodi:type="inkscape:persp3d"
       inkscape:vp_x="0 : 526.18109 : 1"
       inkscape:vp_y="0 : 1000 : 0"
       inkscape:vp_z="744.09448 : 526.18109 : 1"
       inkscape:persp3d-origin="372.04724 : 350.78739 : 1"
       id="perspective4299" />
    <inkscape:perspective
       id="perspective4899"
       inkscape:persp3d-origin="294.20999 : 189.62667 : 1"
       inkscape:vp_z="588.41998 : 284.44 : 1"
       inkscape:vp_y="0 : 1000 : 0"
       inkscape:vp_x="0 : 284.44 : 1"
       sodipodi:type="inkscape:persp3d" />
  </defs>
  <sodipodi:namedview
     id="base"
     pagecolor="#ffffff"
     bordercolor="#666666"
     borderopacity="1.0"
     inkscape:pageopacity="0.0"
     inkscape:pageshadow="2"
     inkscape:zoom="0.25"
     inkscape:cx="161"
     inkscape:cy="520"
     inkscape:document-units="px"
     inkscape:current-layer="layer1"
     showgrid="false"
     inkscape:window-width="1749"
     inkscape:window-height="1143"
     inkscape:window-x="0"
     inkscape:window-y="25"
     inkscape:window-maximized="0" />
  <metadata
     id="metadata4296">
    <rdf:RDF>
      <cc:Work
         rdf:about="">
        <dc:format>image/svg+xml</dc:format>
        <dc:type
           rdf:resource="http://purl.org/dc/dcmitype/StillImage" />
        <dc:title></dc:title>
      </cc:Work>
    </rdf:RDF>
  </metadata>
  <g
     inkscape:label="Capa 1"
     inkscape:groupmode="layer"
     id="layer1">
    <g
       id="g4903"
       transform="translate(-28,-151.5)"
       inkscape:export-xdpi="90"
       inkscape:export-ydpi="90">
      <path
         d="m 365,506.36218 c 0,79.52901 -64.471,144 -144,144 -79.529,0 -144,-64.47099 -144,-144 0,-79.529 64.471,-144 144,-144 79.529,0 144,64.471 144,144 z"
         sodipodi:ry="144"
         sodipodi:rx="144"
         sodipodi:cy="506.36218"
         sodipodi:cx="221"
         id="path4301"
         style="fill:none;stroke:#000000;stroke-width:12;stroke-miterlimit:4;stroke-opacity:1;stroke-dasharray:none"
         sodipodi:type="arc" />
      <path
         style="fill:#000000;stroke:none"
         d="m 124.22615,469.7274 7.05235,0.52239 c 7.31354,-8.27126 10.18672,-32.73681 53.28438,-27.94818 -1.56719,104.82746 -47.53803,115.88484 -44.66485,137.39013 1.04479,12.18924 10.70912,19.67692 21.15704,20.11225 32.99801,-1.13186 31.51789,-45.62258 41.79167,-157.76358 l 42.57527,0 c -2.26371,39.52796 -8.4454,79.05592 -9.14193,117.80029 0.5224,25.77153 16.19428,39.52796 36.82892,39.70209 33.95574,1.13186 44.66485,-38.48317 44.66485,-55.37397 l -7.31354,0 c -0.69653,13.93056 -7.40061,23.94315 -21.67943,24.55261 -38.9185,0.5224 -17.50027,-68.43387 -17.23907,-126.15862 l 46.23204,0.2612 -0.2612,-29.51538 c -192.1582,-0.93081 -167.76785,-4.698 -193.2865,56.41877 z"
         id="path4891" />
    </g>
    <g
       id="g4934"
       transform="translate(39,108.5)"
       inkscape:export-xdpi="90"
       inkscape:export-ydpi="90">
      <g
         transform="translate(6.04297,29.090123)"
         id="g4927">
        <path
           style="fill:none;stroke:#000000;stroke-width:12;stroke-miterlimit:4;stroke-opacity:1;stroke-dasharray:none"
           id="path4915"
           d="m 444.55386,182.57785 c -0.6762,10.75667 0.32151,21.50272 1.32482,32.20284 0.9206,9.8634 1.72984,19.73811 2.37778,29.62333 0.28854,4.08206 0.30655,8.1768 0.29322,12.26706 0.0489,3.22791 0.58103,6.39011 1.23096,9.53977 0,0 -13.01001,6.95211 -13.01001,6.95211 l 0,0 c -0.61667,-3.2593 -1.17905,-6.51611 -1.27047,-9.84392 -0.008,-4.10329 0.008,-8.20672 -0.0684,-12.30967 -0.22323,-9.97142 -0.78094,-19.93363 -1.76205,-29.86082 -1.03061,-10.60966 -2.04445,-21.22683 -2.22355,-31.89198 0,0 13.10772,-6.67872 13.10772,-6.67872 z" />
        <path
           style="fill:none;stroke:#000000;stroke-width:12;stroke-miterlimit:4;stroke-opacity:1;stroke-dasharray:none"
           id="path4917"
           d="m 506.59346,120.0792 c -0.66602,14.09781 -0.65096,28.21793 -0.7766,42.32806 -0.44694,25.58115 -0.10406,51.15221 0.70233,76.72107 0.6091,14.85464 2.29256,29.6262 3.75674,44.41085 0.57628,5.73279 1.03055,11.47566 1.22417,17.23408 0.0741,2.32666 0.0975,4.65439 0.10725,6.98206 0,0 -13.17794,6.7096 -13.17794,6.7096 l 0,0 c 0.0235,-2.34011 0.0555,-4.68026 0.0469,-7.02055 -0.0537,-5.80504 -0.28001,-11.60769 -0.70361,-17.39803 -1.11327,-15.03814 -2.17792,-30.07665 -2.48049,-45.16046 -0.28022,-13.3855 -0.74673,-26.77496 -0.92671,-40.16177 -0.16305,-12.12763 0.0371,-24.26143 -0.18236,-36.38917 -0.12442,-13.84622 -0.10053,-27.70342 -0.7766,-41.53667 0,0 13.18692,-6.71907 13.18692,-6.71907 z" />
        <path
           style="fill:none;stroke:#000000;stroke-width:12;stroke-miterlimit:4;stroke-opacity:1;stroke-dasharray:none"
           id="path4919"
           d="m 573.51427,166.07649 c -0.41086,10.98239 -0.32503,21.97728 -0.35793,32.96568 0.45519,16.12149 0.82529,32.25632 1.97785,48.34547 0.2837,2.80851 0.57974,5.61581 0.85111,8.42554 0.81086,8.39544 0.82255,10.00668 1.90687,18.36554 1.00624,7.75686 2.33469,15.46969 3.65338,23.17777 0.30745,1.75567 0.6149,3.51134 0.92235,5.26701 0,0 -12.37594,6.54405 -12.37594,6.54405 l 0,0 c -0.23478,-1.79352 -0.46956,-3.58703 -0.70434,-5.38055 -2.29004,-16.70871 -4.70575,-33.39882 -6.1988,-50.20515 -1.14559,-16.06924 -1.46995,-32.1805 -2.34516,-48.26606 -0.0326,-10.86675 0.0572,-21.74043 -0.35793,-32.60093 0,0 13.02854,-6.63837 13.02854,-6.63837 z" />
      </g>
      <path
         d="m 365,506.36218 c 0,79.52901 -64.471,144 -144,144 -79.529,0 -144,-64.47099 -144,-144 0,-79.529 64.471,-144 144,-144 79.529,0 144,64.471 144,144 z"
         sodipodi:ry="144"
         sodipodi:rx="144"
         sodipodi:cy="506.36218"
         sodipodi:cx="221"
         id="path4932"
         style="fill:none;stroke:#000000;stroke-width:12;stroke-miterlimit:4;stroke-opacity:1;stroke-dasharray:none"
         sodipodi:type="arc"
         transform="translate(292,-260)" />
    </g>
    <g
       id="g4965"
       transform="translate(185.5,162)"
       inkscape:export-xdpi="90"
       inkscape:export-ydpi="90">
      <g
         transform="translate(5.9104924,3.5000026)"
         id="g4961">
        <path
           d="m 211.47812,485.52186 c -0.64021,16.43999 -0.62574,32.90601 -0.74651,49.36037 -0.42963,29.83116 -0.10003,59.65056 0.67512,89.46739 0.58551,17.32256 2.20375,34.54824 3.61121,51.78919 0.55396,6.68523 0.99063,13.38221 1.17675,20.09732 0.0712,2.71321 0.0937,5.42767 0.10309,8.14205 0,0 -12.66744,7.82432 -12.66744,7.82432 l 0,0 c 0.0226,-2.72889 0.0534,-5.45783 0.0451,-8.18693 -0.0516,-6.76948 -0.26916,-13.53617 -0.67635,-20.28851 -1.07015,-17.53655 -2.09355,-35.07353 -2.3844,-52.66334 -0.26937,-15.60935 -0.71781,-31.22331 -0.89081,-46.83419 -0.15674,-14.14249 0.0357,-28.29218 -0.1753,-42.4348 -0.1196,-16.14661 -0.0966,-32.30603 -0.74651,-48.43751 0,0 12.67607,-7.83536 12.67607,-7.83536 z"
           id="path4947"
           style="fill:none;stroke:#000000;stroke-width:12.7050705;stroke-miterlimit:4;stroke-opacity:1;stroke-dasharray:none" />
        <path
           d="m 154.48233,538.16661 c 0.41086,10.98239 0.32503,21.97728 0.35793,32.96568 -0.45519,16.12149 -0.82529,32.25632 -1.97785,48.34547 -0.2837,2.80851 -0.57974,5.61581 -0.85111,8.42554 -0.81086,8.39544 -0.82255,10.00668 -1.90687,18.36554 -1.00624,7.75686 -2.33469,15.46969 -3.65338,23.17777 -0.30745,1.75567 -0.6149,3.51134 -0.92235,5.26701 0,0 12.37594,6.54405 12.37594,6.54405 l 0,0 c 0.23478,-1.79352 0.46956,-3.58703 0.70434,-5.38055 2.29004,-16.70871 4.70575,-33.39882 6.1988,-50.20515 1.14559,-16.06924 1.46995,-32.1805 2.34516,-48.26606 0.0326,-10.86675 -0.0572,-21.74043 0.35793,-32.60093 0,0 -13.02854,-6.63837 -13.02854,-6.63837 z"
           id="path4949"
           style="fill:none;stroke:#000000;stroke-width:12;stroke-miterlimit:4;stroke-opacity:1;stroke-dasharray:none" />
      </g>
      <path
         transform="translate(-34,96)"
         sodipodi:type="arc"
         style="fill:none;stroke:#000000;stroke-width:12;stroke-miterlimit:4;stroke-opacity:1;stroke-dasharray:none"
         id="path4951"
         sodipodi:cx="221"
         sodipodi:cy="506.36218"
         sodipodi:rx="144"
         sodipodi:ry="144"
         d="m 365,506.36218 c 0,79.52901 -64.471,144 -144,144 -79.529,0 -144,-64.47099 -144,-144 0,-79.529 64.471,-144 144,-144 79.529,0 144,64.471 144,144 z" />
    </g>
    <text
       xml:space="preserve"
       style="font-size:56;font-style:normal;font-weight:normal;fill:#000000;fill-opacity:1;stroke:none;font-family:Bitstream Vera Sans"
       x="80"
       y="152.36218"
       id="text4991"><tspan
         sodipodi:role="line"
         id="tspan4993"
         x="80"
         y="152.36218">humans</tspan></text>
    <text
       xml:space="preserve"
       style="font-size:56;font-style:normal;font-weight:normal;fill:#000000;fill-opacity:1;stroke:none;font-family:Bitstream Vera Sans"
       x="452"
       y="148.36218"
       id="text4995"><tspan
         sodipodi:role="line"
         id="tspan4997"
         x="452"
         y="148.36218">aliens</tspan></text>
    <text
       xml:space="preserve"
       style="font-size:56px;font-style:normal;font-weight:normal;fill:#000000;fill-opacity:1;stroke:none;font-family:Bitstream Vera Sans"
       x="260"
       y="572.36218"
       id="text4999"><tspan
         sodipodi:role="line"
         id="tspan5001"
         x="260"
         y="572.36218">protozz</tspan></text>
  </g>
</svg>
